<?xml version="1.0" encoding="UTF-8"?>
<!DOCTYPE svg PUBLIC "-//W3C//DTD SVG 1.1//EN" "http://www.w3.org/Graphics/SVG/1.1/DTD/svg11.dtd">
<!-- Creator: CorelDRAW 2017 -->
<svg xmlns="http://www.w3.org/2000/svg" xml:space="preserve" width="12.5127in" height="1.34093in" version="1.1" style="shape-rendering:geometricPrecision; text-rendering:geometricPrecision; image-rendering:optimizeQuality; fill-rule:evenodd; clip-rule:evenodd"
viewBox="0 0 12455.15 1334.76"
 xmlns:xlink="http://www.w3.org/1999/xlink">
 <defs>
  <style type="text/css">
   <![CDATA[
    .str0 {stroke:#252422;stroke-width:15.28;stroke-miterlimit:2.61313}
    .str1 {stroke:#252422;stroke-width:8.95;stroke-miterlimit:2.61313}
    .fil3 {fill:none}
    .fil1 {fill:#E41D2D}
    .fil2 {fill:#252422}
    .fil0 {fill:black;fill-rule:nonzero}
   ]]>
  </style>
 </defs>
 <g id="Layer_x0020_1">
  <metadata id="CorelCorpID_0Corel-Layer"/>
  <path class="fil0" d="M616.88 1291.95l51.81 -9.89c92.38,-18.12 111.98,-42.81 142.78,-248.67l117.58 -793.78 -125.98 3.29c-132.98,3.3 -180.58,37.88 -239.38,143.28l-44.79 80.69 -22.4 0 78.39 -312.91 25.2 0c32.19,32.93 40.6,39.53 422.75,39.53 396.16,0 414.35,-6.6 461.94,-39.53l25.2 0 -89.59 312.91 -22.4 0 -2.81 -80.69c-4.2,-105.4 -32.19,-139.98 -159.57,-143.28l-141.39 -3.29 -118.99 793.78c-30.8,205.86 -19.6,230.56 68.59,248.67l49 9.89 -2.8 24.7c-26.6,0 -186.18,-3.3 -239.38,-3.3 -51.79,0 -211.37,3.3 -237.97,3.3l4.19 -24.7z"/>
  <path class="fil0" d="M1886.45 1150.31l70 -388.66c4.2,-26.35 9.8,-56 9.8,-77.39 0,-29.65 -12.6,-54.35 -39.19,-54.35 -68.6,0 -204.39,197.62 -242.18,288.19l-60.2 396.89 -153.97 0 155.38 -1016.1c13.99,-88.93 9.81,-111.99 -51.8,-128.46l-37.79 -9.88 4.2 -19.76 260.38 -52.7 9.79 19.76 -118.99 750.96c63,-125.15 170.79,-342.54 299.57,-342.54 81.2,0 130.19,52.7 130.19,151.51 0,24.7 -2.79,55.99 -8.39,83.98l-68.59 382.07c-4.2,24.7 -7.01,44.47 -7.01,59.29 0,32.93 11.2,44.47 32.21,44.47 26.59,0 64.39,-19.77 110.58,-65.88l14 19.76c-75.59,90.58 -142.78,136.69 -205.78,136.69 -88.19,0 -124.58,-51.05 -102.19,-177.86z"/>
  <path class="fil0" d="M2648.04 695.78c2.8,-80.69 -23.79,-136.69 -81.18,-136.69 -91,0 -186.18,167.98 -194.58,365.59 218.37,-32.93 272.97,-111.98 275.76,-228.9zm-67.19 536.87c57.39,0 107.78,-16.47 163.78,-65.87l15.4 19.77c-79.8,98.8 -173.59,148.21 -274.38,148.21 -162.37,0 -274.36,-115.28 -274.36,-329.37 0,-260.2 181.98,-492.4 383.56,-492.4 155.37,0 223.97,80.69 223.97,187.74 0,158.09 -158.19,235.5 -446.55,253.61 1.4,191.03 92.38,278.31 208.58,278.31z"/>
  <path class="fil0" d="M2909.75 1291.95l51.79 -9.89c88.18,-16.47 106.4,-42.81 137.19,-248.67l82.58 -563.23c30.79,-205.84 22.4,-232.2 -61.59,-248.67l-50.39 -9.87 4.2 -24.72c26.59,0 180.56,3.3 232.38,3.3 51.78,0 207.17,-3.3 233.77,-3.3l-2.8 24.72 -53.19 9.87c-88.19,16.48 -106.4,42.83 -137.19,248.67l-82.58 563.23c-30.79,205.86 -22.42,232.21 61.59,248.67l50.39 9.89 -4.2 24.7c-26.59,0 -180.58,-3.3 -232.37,-3.3 -51.79,0 -207.18,3.3 -233.77,3.3l4.2 -24.7z"/>
  <path class="fil0" d="M3842.3 1150.31l70 -388.66c4.2,-26.35 9.78,-57.64 9.78,-77.39 0,-29.65 -12.6,-54.35 -37.77,-54.35 -67.21,0 -194.58,182.8 -240.79,284.9l-65.78 400.18 -153.99 0 95.2 -586.27c12.6,-74.11 18.2,-113.63 -46.21,-128.46l-41.99 -9.88 2.8 -19.76 261.77 -52.71 9.81 19.76 -51.8 312.9c71.4,-143.27 172.18,-334.3 293.98,-334.3 81.18,0 130.17,52.7 130.17,151.51 0,24.7 -2.8,55.99 -8.4,83.98l-68.58 382.07c-14,79.05 -5.6,103.76 26.59,103.76 26.59,0 63,-21.42 109.2,-65.88l13.99 19.76c-75.6,90.58 -142.79,136.69 -205.78,136.69 -88.2,0 -124.59,-51.05 -102.19,-177.86z"/>
  <path class="fil0" d="M4620.55 1018.56l22.39 -141.63c8.4,-49.41 12.6,-92.22 12.6,-131.75 0,-107.04 -34.99,-174.56 -125.99,-174.56 -117.58,0 -200.18,215.73 -200.18,449.58 0,144.92 33.6,202.55 88.2,202.55 64.39,0 155.37,-103.75 202.98,-204.2zm-453.55 24.7c0,-307.96 190.38,-517.11 380.74,-517.11 56.01,0 109.2,18.12 141.39,36.24l37.79 -263.5c11.2,-80.7 8.4,-111.99 -50.39,-128.46l-36.39 -9.88 4.2 -19.76 257.57 -52.7 9.8 19.76 -155.38 1025.98c-4.2,26.35 -5.6,46.11 -5.6,60.94 0,37.86 11.2,42.81 32.19,42.81 25.21,-1.65 61.61,-21.42 107.8,-65.88l14 19.76c-75.59,90.58 -141.39,136.69 -204.37,136.69 -86.79,0 -120.38,-59.28 -97.98,-187.74l11.2 -62.58c-58.8,115.28 -151.18,255.27 -258.98,255.27 -117.58,0 -187.56,-120.22 -187.56,-289.85z"/>
  <path class="fil0" d="M5063.92 274.19c0,-60.94 42.01,-108.68 99.4,-108.68 55.99,0 98,47.75 98,108.68 0,62.58 -42.01,108.7 -98,108.7 -57.39,0 -99.4,-46.11 -99.4,-108.7zm-104.98 889.3l69.99 -434.76c12.6,-74.11 9.82,-111.98 -50.39,-128.46l-37.79 -9.88 4.2 -19.76 261.77 -52.71 9.8 19.76 -97.98 596.16c-4.2,26.35 -5.6,46.11 -7,60.94 0,32.93 11.2,42.81 32.19,42.81 26.59,0 64.39,-21.42 110.58,-65.88l14 21.41c-68.58,82.34 -142.77,135.04 -205.77,135.04 -88.19,0 -121.78,-54.34 -103.58,-164.68z"/>
  <path class="fil0" d="M5728.83 1018.56l22.39 -141.63c8.4,-52.7 14,-100.46 14,-141.63 0,-105.4 -33.6,-164.68 -120.38,-164.68 -112,0 -198.78,220.67 -198.78,451.23 0,143.28 30.79,200.91 79.79,200.91 68.6,0 155.38,-103.75 202.98,-204.2zm-445.15 24.7c0,-307.96 197.38,-517.11 379.36,-517.11 60.19,0 134.38,23.05 184.78,55.99l89.58 -69.16 25.2 0 -97.98 620.86c-4.2,24.7 -5.6,44.47 -5.6,59.29 0,32.93 8.39,44.47 32.19,44.47 25.19,0 62.99,-21.42 109.18,-65.88l12.61 19.76c-75.6,90.58 -141.39,136.69 -204.39,136.69 -86.79,0 -120.38,-59.28 -97.98,-187.74l11.2 -62.58c-58.79,115.28 -148.39,255.27 -257.57,255.27 -113.39,0 -180.58,-120.22 -180.58,-289.85z"/>
  <path class="fil0" d="M6453.89 1150.31l69.99 -388.66c4.2,-26.35 9.8,-57.64 9.8,-77.39 0,-29.65 -12.6,-54.35 -37.8,-54.35 -67.2,0 -194.58,182.8 -240.77,284.9l-65.8 400.18 -153.97 0 95.18 -586.27c12.6,-74.11 18.2,-113.63 -46.19,-128.46l-42.01 -9.88 2.81 -19.76 261.77 -52.71 9.8 19.76 -51.79 312.9c71.39,-143.27 172.18,-334.3 293.96,-334.3 81.19,0 130.19,52.7 130.19,151.51 0,24.7 -2.8,55.99 -8.4,83.98l-68.6 382.07c-14,79.05 -5.6,103.76 26.59,103.76 26.61,0 62.99,-21.42 109.2,-65.88l14 19.76c-75.59,90.58 -142.77,136.69 -205.78,136.69 -88.18,0 -124.59,-51.05 -102.18,-177.86z"/>
  <polygon class="fil0" points="6967.44,10.38 7608,10.38 7608,226.17 7224.53,226.17 7224.53,500.09 7542.65,500.09 7542.65,703.43 7224.53,703.43 7224.53,1095.61 7608,1095.61 7608,1309.34 6967.44,1309.34 "/>
  <polygon class="fil0" points="8024.11,923.38 7880.31,1309.34 7631.91,1309.34 7902.1,624.58 7653.71,10.38 7915.16,10.38 8048.07,342.38 8170.07,10.38 8416.29,10.38 8167.91,639.11 8440.25,1309.34 8180.97,1309.34 "/>
  <path class="fil0" d="M8849.8 618.35c126.37,0 141.6,-35.27 141.6,-151.47l0 -99.6c0,-105.83 -15.23,-153.55 -143.79,-153.55l-93.7 0 0 404.62 95.89 0zm-352.98 -607.98l346.43 0c259.28,0 405.27,56.03 405.27,361.06l0 87.14c0,305.03 -148.16,361.05 -405.27,361.05l-89.34 0 0 489.71 -257.09 0 0 -1298.96z"/>
  <path class="fil0" d="M9666.77 603.83c126.37,0 139.45,-35.27 139.45,-151.49l0 -85.07c0,-105.83 -13.08,-153.55 -141.62,-153.55l-87.16 0 0 390.1 89.34 0zm-346.43 -593.46l339.91 0c257.08,0 400.88,56.03 400.88,361.06l0 76.77c0,184.67 -56.65,273.9 -159.06,315.41l152.52 545.73 -263.62 0 -143.79 -512.53 -69.74 0 0 512.53 -257.09 0 0 -1298.96z"/>
  <polygon class="fil0" points="10150.4,10.38 10790.96,10.38 10790.96,226.17 10407.49,226.17 10407.49,500.09 10725.6,500.09 10725.6,703.43 10407.49,703.43 10407.49,1095.61 10790.96,1095.61 10790.96,1309.34 10150.4,1309.34 "/>
  <path class="fil0" d="M10836.64 927.52l261.46 -31.11c6.53,182.59 32.68,207.49 141.63,207.49 104.57,0 126.36,-49.81 126.36,-120.35 0,-89.22 -65.35,-132.8 -226.58,-257.3 -167.79,-124.5 -283.26,-219.95 -283.26,-396.33 0,-232.4 143.81,-329.92 370.4,-329.92 274.53,0 357.31,107.9 383.46,336.16l-257.1 22.82c-6.52,-105.82 -32.67,-143.17 -119.84,-143.17 -93.67,0 -119.82,45.65 -119.82,105.82 0,74.7 52.29,114.13 193.9,222.03 185.2,143.18 318.12,236.55 318.12,439.91 0,209.57 -104.6,334.08 -394.38,334.08 -315.91,0 -385.65,-157.7 -394.36,-390.12z"/>
  <path class="fil0" d="M11666.7 927.52l261.45 -31.11c6.55,182.59 32.7,207.49 141.63,207.49 104.57,0 126.37,-49.81 126.37,-120.35 0,-89.22 -65.36,-132.8 -226.59,-257.3 -167.78,-124.5 -283.24,-219.95 -283.24,-396.33 0,-232.4 143.8,-329.92 370.39,-329.92 274.53,0 357.31,107.9 383.46,336.16l-257.09 22.82c-6.53,-105.82 -32.68,-143.17 -119.85,-143.17 -93.67,0 -119.82,45.65 -119.82,105.82 0,74.7 52.29,114.13 193.91,222.03 180.34,139.42 311.09,231.63 317.82,424.16l0 34.56c-6.22,198.18 -113.09,315.26 -394.07,315.26 -315.93,0 -385.65,-157.7 -394.38,-390.12z"/>
  <path class="fil1" d="M183.17 111.3c-0.39,4.33 -10.98,21.2 2.01,34.15l144.84 140.72c22.44,22.01 23.64,40.17 6.37,58.34 -14.13,16.88 -25.9,31.59 -36.88,45.01 -5.89,6.92 10.97,-19.9 -3.99,-36.31 -59.83,-58.71 -102.73,-99.28 -147.99,-144.17 -17.71,-17.27 -18.52,-33.27 -2.43,-52.31 14.12,-16.87 27.47,-32.46 38.06,-45.44l0 0z"/>
  <path class="fil1" d="M50.25 271.24c-1.17,4.32 -11.76,20.33 2.01,34.15l143.66 140.72c23.61,22.02 24.03,39.3 7.55,58.78 -14.52,16.45 -26.68,30.3 -37.28,43.72 -5.49,7.36 10.98,-19.9 -3.59,-35.45 -61.01,-59.58 -103.51,-99.28 -147.99,-144.18 -18.5,-17.26 -19.3,-32.82 -3.22,-52.3 14.12,-17.31 27.47,-32.46 38.84,-45.44l0 0z"/>
  <path class="fil1" d="M116.03 191.27c0.01,4.32 -11.37,20.33 2.01,33.28l144.84 141.59c22.44,22.01 23.64,39.31 6.37,58.35 -13.73,16.87 -25.5,30.73 -36.88,44.14 -5.89,7.36 11.37,-19.9 -3.98,-35.44 -59.82,-59.57 -102.33,-99.28 -147.59,-144.17 -17.71,-17.7 -19.31,-33.26 -2.83,-52.31 14.12,-16.88 27.47,-32.46 38.06,-45.44l0 0z"/>
  <polygon class="fil2" points="84,1316.9 266.37,1316.64 244.7,1280.8 103.21,1280.99 84,1316.9 "/>
  <path class="fil3 str0" d="M166.38 603.79c3.57,21.17 45.11,93.94 100.41,130.51l-53.94 213.19 -45.98 0.06 -46.77 0.07 -53.75 -213.04c47.29,-33.15 96.53,-109.6 100.04,-130.79l0 0z"/>
  <line class="fil3 str1" x1="166.37" y1="606.58" x2="166.6" y2= "774.74" />
  <path class="fil2" d="M106.27 896.81c32.3,50.97 90.47,50.88 119.48,0.26l-3.84 61.82 -110.45 0.16 -5.19 -62.24 0 0z"/>
  <polygon class="fil2" points="99.69,1000.35 234.9,1000.16 235.26,979.41 99.67,979.61 99.69,1000.35 "/>
  <path class="fil2" d="M243.96 1260.47c19.46,-64.54 35.94,-120.9 44.15,-188.11 -12.34,-16.41 -24.68,-32.82 -37.01,-49.23l-80.18 0.11c-0.74,30.27 23.63,34.55 55.48,41.85 -52.16,83.94 13.48,85.57 -13.87,195.41l31.44 -0.04 0 0z"/>
  <path class="fil2" d="M126.69 1075.75l-50.72 -12.9c-29.88,-7.3 -19.72,-45.79 9.37,-39.35l53.08 12.9c26.34,6.01 16.57,46.23 -11.74,39.35l0 0z"/>
  <path class="fil2" d="M130.82 1137.86l-61.33 -14.61c-29.89,-8.17 -19.33,-46.66 10.16,-40.65l62.52 15.04c25.95,7.74 14.21,45.8 -11.34,40.22l0 0z"/>
  <path class="fil2" d="M86.45 1146.8l51.9 12.03c31.45,7.74 19.72,46.23 -9.77,39.78l-53.87 -13.32c-24.76,-6.02 -17.75,-46.67 11.74,-38.5l0 0z"/>
  <path class="fil2" d="M104.02 1211.86l34.21 8.17c31.45,7.3 19.72,46.22 -9.77,39.78l-36.96 -8.59c-23.99,-6.02 -17.76,-47.53 12.52,-39.36l0 0z"/>
  <path class="fil2" d="M167.25 734.27c12.88,-0.02 23.34,11.45 23.36,25.63 0.02,14.17 -10.41,25.66 -23.29,25.68 -12.88,0.02 -23.34,-11.45 -23.36,-25.62 -0.02,-14.17 10.41,-25.67 23.29,-25.69l0 0z"/>
  <path class="fil2" d="M152.74 618.31c0,0 9.66,-23.05 14.16,-51.18 0,0 6.41,40.37 12.65,51.08l-9.03 -1.56 -17.78 1.67 0 0z"/>
 </g>
</svg>
