<?xml version="1.0" encoding="utf-8"?>
<!-- Generator: Adobe Illustrator 21.1.0, SVG Export Plug-In . SVG Version: 6.00 Build 0)  -->
<svg version="1.1" id="Layer_1" xmlns="http://www.w3.org/2000/svg" xmlns:xlink="http://www.w3.org/1999/xlink" x="0px" y="0px"
	 viewBox="0 0 270 55" style="enable-background:new 0 0 270 55;" xml:space="preserve">
<style type="text/css">
	.st0{fill:#FF9858;}
	.st1{fill:#FFFFFF;}
</style>
<path class="st0" d="M262.43,55H7.57C3.39,55,0,51.61,0,47.43V7.57C0,3.39,3.39,0,7.57,0h254.85c4.18,0,7.57,3.39,7.57,7.57v39.85
	C270,51.61,266.61,55,262.43,55z"/>
<g>
	<g>
		<path class="st1" d="M144.62,24.22c-0.11,0.25-0.4,0.37-0.66,0.26c-0.97-0.41-2.3-0.79-3.49-0.8c-1.26,0-1.9,0.45-1.9,1.12
			c0,0.72,0.89,0.89,2.02,1.06l1.1,0.17c2.68,0.41,4.18,1.61,4.18,3.71c0,2.56-2.1,4.2-5.69,4.2c-1.55,0-3.55-0.27-5.11-1.2
			c-0.23-0.14-0.31-0.43-0.19-0.66l0.86-1.65c0.13-0.25,0.45-0.34,0.7-0.2c0.98,0.56,2.16,0.94,3.77,0.94
			c1.55,0,2.29-0.43,2.29-1.16c0-0.6-0.63-0.93-2.06-1.14l-1.01-0.14c-2.86-0.4-4.28-1.65-4.28-3.76c0-2.54,1.97-4.05,5.23-4.05
			c1.8,0,3.24,0.31,4.72,0.96c0.25,0.11,0.37,0.4,0.26,0.66L144.62,24.22z"/>
		<path class="st1" d="M151.83,22.56c0.88-1.23,2.2-1.66,3.55-1.66c2.81,0,4.82,1.95,4.82,4.83v7.14c0,0.41-0.33,0.75-0.75,0.75
			h-1.84c-0.41,0-0.75-0.33-0.75-0.75V26.8c0-1.79-0.89-2.77-2.42-2.77c-1.43,0-2.62,0.93-2.62,2.8v6.04c0,0.41-0.33,0.75-0.75,0.75
			h-1.84c-0.41,0-0.75-0.33-0.75-0.75V15.95c0-0.41,0.33-0.75,0.75-0.75h1.84c0.41,0,0.75,0.33,0.75,0.75V22.56z"/>
		<path class="st1" d="M167.38,17.18c0,1.2-0.93,2.12-2.13,2.12c-1.2,0-2.12-0.92-2.12-2.12s0.92-2.15,2.12-2.15
			C166.45,15.04,167.38,15.98,167.38,17.18z M166.19,33.61h-1.84c-0.41,0-0.75-0.33-0.75-0.75V21.98c0-0.41,0.33-0.75,0.75-0.75
			h1.84c0.41,0,0.75,0.33,0.75,0.75v10.89C166.93,33.28,166.6,33.61,166.19,33.61z"/>
		<path class="st1" d="M181.95,27.4c0,0.08,0,0.17,0,0.26c-0.01,0.48-0.4,0.87-0.89,0.87l-7.95,0c0.36,1.79,1.61,2.57,3.18,2.57
			c0.93,0,1.93-0.33,2.76-0.9c0.22-0.15,0.52-0.12,0.7,0.08l1.25,1.37c0.21,0.23,0.18,0.6-0.06,0.79c-1.33,1.03-2.97,1.51-4.84,1.51
			c-3.79,0-6.43-2.58-6.43-6.48s2.56-6.55,6.26-6.55C179.49,20.9,181.93,23.55,181.95,27.4z M173.12,26.25h5.48
			c-0.31-1.58-1.26-2.48-2.7-2.48C174.33,23.78,173.41,24.72,173.12,26.25z"/>
		<path class="st1" d="M187.26,33.61h-1.84c-0.41,0-0.75-0.33-0.75-0.75V15.96c0-0.41,0.33-0.75,0.75-0.75h1.84
			c0.41,0,0.75,0.33,0.75,0.75v16.91C188,33.28,187.67,33.61,187.26,33.61z"/>
		<path class="st1" d="M200.37,22.52v-6.57c0-0.41,0.33-0.74,0.74-0.74h1.84c0.41,0,0.74,0.33,0.74,0.74v17.21
			c0,0.25-0.2,0.45-0.45,0.45h-2.37c-0.25,0-0.45-0.2-0.45-0.45v-0.92c-0.8,1-2.01,1.69-3.71,1.69c-3.41,0-5.99-2.8-5.99-6.52
			s2.58-6.52,5.99-6.52C198.39,20.9,199.57,21.55,200.37,22.52z M194.15,27.42c0,1.89,1.24,3.41,3.19,3.41
			c1.9,0,3.19-1.46,3.19-3.41c0-1.96-1.29-3.41-3.19-3.41C195.39,24.01,194.15,25.53,194.15,27.42z"/>
		<path class="st1" d="M220.15,27.42c0,3.72-2.58,6.52-5.99,6.52c-1.66,0-2.84-0.65-3.64-1.61v5.66c0,0.41-0.33,0.74-0.74,0.74
			h-1.84c-0.41,0-0.74-0.33-0.74-0.74V21.68c0-0.25,0.2-0.45,0.45-0.45h2.37c0.25,0,0.45,0.2,0.45,0.45v0.92
			c0.8-1.01,1.99-1.7,3.69-1.7C217.57,20.9,220.15,23.7,220.15,27.42z M210.35,27.42c0,1.95,1.29,3.41,3.18,3.41
			c1.97,0,3.19-1.52,3.19-3.41c0-1.89-1.23-3.41-3.19-3.41C211.64,24.01,210.35,25.46,210.35,27.42z"/>
		<path class="st1" d="M234.62,33.61h-2.37c-0.25,0-0.45-0.2-0.45-0.45v-0.92c-0.8,1-2.01,1.69-3.71,1.69
			c-3.41,0-5.99-2.8-5.99-6.52s2.58-6.52,5.99-6.52c1.7,0,2.89,0.69,3.71,1.7v-0.92c0-0.25,0.2-0.45,0.45-0.45h2.37
			c0.25,0,0.45,0.2,0.45,0.45v11.49C235.07,33.41,234.87,33.61,234.62,33.61z M225.52,27.42c0,1.89,1.24,3.41,3.19,3.41
			c1.9,0,3.19-1.46,3.19-3.41c0-1.96-1.29-3.41-3.19-3.41C226.76,24.01,225.52,25.53,225.52,27.42z"/>
		<path class="st1" d="M241.25,38.78h-2.54c-0.32,0-0.53-0.35-0.37-0.63l3.98-7.17l-4.98-9.09c-0.16-0.29,0.05-0.65,0.39-0.65h2.6
			c0.27,0,0.52,0.15,0.65,0.39l3.19,5.98l3.11-6c0.12-0.23,0.35-0.37,0.6-0.37h2.44c0.36,0,0.59,0.38,0.42,0.7l-8.9,16.49
			C241.72,38.64,241.5,38.78,241.25,38.78z"/>
	</g>
	<g>
		<path class="st1" d="M119.71,25.21c-0.77-0.75-0.72-2.01,0.04-2.77l3.51-3.51c0.7-0.7,1.84-0.83,2.63-0.22
			c0.95,0.74,1.02,2.12,0.19,2.94l-0.27,0.27c-0.55,0.55-0.55,1.44,0,1.99l0.14,0.14c0.55,0.55,1.44,0.55,1.99,0l0.19-0.19
			c1.9-1.9,2.05-5.01,0.22-6.98c-1.93-2.08-5.18-2.12-7.17-0.14l-3.58,3.58c-1.91,1.91-1.94,5-0.09,6.95
			c0.57,0.6,1.53,0.7,2.15,0.15C120.32,26.84,120.34,25.82,119.71,25.21z"/>
		<path class="st1" d="M121.42,25.44c0.77,0.75,0.72,2.01-0.04,2.77l-3.33,3.33c-0.7,0.7-1.84,0.83-2.63,0.22
			c-0.95-0.74-1.02-2.12-0.19-2.94l0.27-0.27c0.55-0.55,0.55-1.44,0-1.99l-0.14-0.14c-0.55-0.55-1.44-0.55-1.99,0l-0.19,0.19
			c-1.9,1.9-2.05,5.01-0.22,6.98c1.93,2.08,5.18,2.12,7.17,0.14l3.39-3.39c1.91-1.91,1.94-5,0.09-6.95c-0.57-0.6-1.53-0.7-2.15-0.15
			C120.8,23.81,120.79,24.83,121.42,25.44z"/>
	</g>
</g>
<g>
	<g>
		<path class="st1" d="M25.65,32.68c-3.17,0-6.55-2.3-6.55-6.57c0-3.81,2.78-6.58,6.61-6.58c1.99,0,3.76,0.76,4.96,2.15l0.06,0.07
			l-1.22,1.17l-0.07-0.08c-0.9-1.09-2.26-1.71-3.74-1.71c-2.83,0-4.89,2.1-4.89,4.99c0,2.89,2.03,4.99,4.82,4.99
			c2.52,0,4.17-1.48,4.43-3.97h-3.92v-1.55h5.68l0.01,0.09c0.01,0.13,0.02,0.26,0.02,0.38C31.87,29.95,29.31,32.68,25.65,32.68z"/>
		<path class="st1" d="M30.6,21.74l-1.07,1.03c-0.89-1.08-2.25-1.75-3.82-1.75c-2.83,0-4.99,2.05-4.99,5.09s2.16,5.09,4.92,5.09
			c2.67,0,4.31-1.58,4.54-4.17h-3.92v-1.35h5.49c0.01,0.13,0.02,0.25,0.02,0.37c0,3.67-2.32,6.54-6.12,6.54
			c-3.31,0-6.45-2.39-6.45-6.47c0-3.79,2.79-6.48,6.51-6.48C27.71,19.63,29.45,20.42,30.6,21.74z"/>
		<path class="st1" d="M34.29,32.51v-8.72h1.55v8.72H34.29z M35.07,21.9c-0.6,0-1.05-0.45-1.05-1.05c0-0.6,0.45-1.05,1.05-1.05
			c0.59,0,1.05,0.46,1.05,1.05C36.12,21.44,35.66,21.9,35.07,21.9z"/>
		<path class="st1" d="M36.02,20.86c0,0.54-0.42,0.95-0.95,0.95c-0.54,0-0.95-0.41-0.95-0.95s0.41-0.95,0.95-0.95
			C35.6,19.9,36.02,20.32,36.02,20.86z M35.74,32.41h-1.35v-8.53h1.35V32.41z"/>
		<polygon class="st1" points="41.18,32.53 37.46,23.79 39.14,23.79 42.05,30.8 44.96,23.79 46.6,23.79 42.89,32.53 		"/>
		<path class="st1" d="M42.82,32.43h-1.58l-3.64-8.54h1.46l2.98,7.17l2.98-7.17h1.42L42.82,32.43z"/>
		<path class="st1" d="M51.72,32.68c-2.6,0-4.41-1.86-4.41-4.53c0-2.63,1.82-4.54,4.33-4.54c2.4,0,4.09,1.85,4.11,4.5
			c0,0.18-0.01,0.36-0.03,0.52l-0.01,0.09H48.9c0.21,1.6,1.31,2.58,2.9,2.58c0.97,0,1.89-0.36,2.63-1.05l0.08-0.07l0.84,1.08
			l-0.07,0.06C54.33,32.25,53.19,32.68,51.72,32.68z M54.17,27.43c-0.2-1.47-1.19-2.42-2.55-2.42c-1.42,0-2.44,0.92-2.69,2.42H54.17
			z"/>
		<path class="st1" d="M55.65,28.12c0,0.17-0.01,0.35-0.03,0.5h-6.83c0.19,1.84,1.48,2.78,3.02,2.78c1.05,0,1.97-0.41,2.7-1.07
			l0.72,0.92c-1.06,1.02-2.25,1.33-3.5,1.33c-2.52,0-4.31-1.79-4.31-4.43c0-2.61,1.8-4.44,4.23-4.44
			C53.96,23.71,55.63,25.52,55.65,28.12z M48.81,27.53h5.47c-0.17-1.59-1.21-2.62-2.66-2.62C50.04,24.91,49.02,25.99,48.81,27.53z"
			/>
		<polygon class="st1" points="71.7,32.51 69.22,25.62 66.75,32.51 65.04,32.51 61.82,23.79 63.47,23.79 65.94,30.71 68.41,23.79 
			70.06,23.79 72.55,30.72 75.05,23.79 76.66,23.79 73.43,32.51 		"/>
		<path class="st1" d="M72.55,31.01l2.57-7.13h1.4l-3.15,8.53h-1.59l-2.55-7.08l-2.54,7.08h-1.57l-3.15-8.53h1.43l2.55,7.12
			l2.54-7.12h1.51L72.55,31.01z"/>
		<path class="st1" d="M78.39,32.51v-8.72h1.55v8.72H78.39z M79.16,21.9c-0.6,0-1.04-0.45-1.04-1.05c0-0.6,0.45-1.05,1.04-1.05
			c0.59,0,1.05,0.46,1.05,1.05C80.22,21.44,79.75,21.9,79.16,21.9z"/>
		<path class="st1" d="M80.12,20.86c0,0.54-0.42,0.95-0.95,0.95c-0.54,0-0.95-0.41-0.95-0.95s0.41-0.95,0.95-0.95
			C79.69,19.9,80.12,20.32,80.12,20.86z M79.84,32.41h-1.35v-8.53h1.35V32.41z"/>
		<path class="st1" d="M86.61,32.68c-1.98,0-3.03-1.12-3.03-3.25V25.2h-1.86v-1.41h1.86v-2.71h1.54v2.71h3.68v1.41h-3.68v4.2
			c0,1.17,0.57,1.82,1.59,1.82c0.6,0,1.21-0.21,1.73-0.58l0.09-0.06l0.73,1.19l-0.07,0.06C88.45,32.38,87.55,32.68,86.61,32.68z"/>
		<path class="st1" d="M88.7,25.1h-3.68v4.3c0,1.33,0.7,1.92,1.69,1.92c0.66,0,1.3-0.24,1.79-0.6l0.63,1.02
			c-0.64,0.49-1.49,0.85-2.53,0.85c-1.84,0-2.93-1.01-2.93-3.15V25.1h-1.86v-1.21h1.86v-2.71h1.34v2.71h3.68V25.1z"/>
		<path class="st1" d="M97.39,32.51v-4.94c0-1.57-0.86-2.47-2.36-2.47c-1.48,0-2.51,1.03-2.51,2.51v4.91h-1.55V19.35h1.55v5.44
			c0.86-1.01,2.08-1.17,2.75-1.17c2.19,0,3.66,1.41,3.66,3.51v5.38H97.39z"/>
		<path class="st1" d="M92.42,25.07c0.7-0.99,1.82-1.36,2.85-1.36c2.11,0,3.56,1.35,3.56,3.41v5.28h-1.34v-4.84
			c0-1.62-0.9-2.57-2.46-2.57c-1.43,0-2.61,0.99-2.61,2.61v4.81h-1.35V19.45h1.35V25.07z"/>
	</g>
</g>
</svg>
