<svg id="Layer_1" data-name="Layer 1" xmlns="http://www.w3.org/2000/svg" viewBox="0 0 275.04 30.29"><title>GreenMatters_2</title><path d="M265.56,16.79q-4.93-.06-7.43-2.73a6.55,6.55,0,0,1-1.89-4.95,8.18,8.18,0,0,1,2.81-5.87,9,9,0,0,1,6.3-2.4,12.13,12.13,0,0,1,5.79,1.35A7.19,7.19,0,0,1,275,6.85a1.19,1.19,0,0,1-.88,1.48,1.1,1.1,0,0,1-.92-.12,1.13,1.13,0,0,1-.55-.74,4.93,4.93,0,0,0-2.87-3.24,9.91,9.91,0,0,0-4.41-.94A6.69,6.69,0,0,0,260.73,5a5.86,5.86,0,0,0-2.05,4.23,4.12,4.12,0,0,0,1.23,3.14q1.79,1.91,5.68,2a1.23,1.23,0,0,1,1.21,1.25,1.23,1.23,0,0,1-1.23,1.19ZM260.14,29a7.25,7.25,0,0,1-3.86-4.68,1.22,1.22,0,0,1,.12-.92,1.2,1.2,0,0,1,.76-.55,1.22,1.22,0,0,1,.92.12,1.2,1.2,0,0,1,.55.74,5,5,0,0,0,2.87,3.26,10.1,10.1,0,0,0,4.41.92,6.69,6.69,0,0,0,4.62-1.72,5.84,5.84,0,0,0,2.05-4.21,4.15,4.15,0,0,0-1.23-3.16q-1.79-1.91-5.68-2a1.14,1.14,0,0,1-.86-.37,1.19,1.19,0,0,1,0-1.72,1.17,1.17,0,0,1,.86-.35q4.93.08,7.43,2.75A6.41,6.41,0,0,1,275,22a8.11,8.11,0,0,1-2.79,5.87,9,9,0,0,1-6.3,2.4A12.28,12.28,0,0,1,260.14,29Z"/><path d="M40.13.81a8.66,8.66,0,0,1,6.07,2.32,7.36,7.36,0,0,1,2.5,5.6,7.32,7.32,0,0,1-2.05,5.13,8.4,8.4,0,0,1-5.07,2.67l5.85,11.92a1.15,1.15,0,0,1,.06.92,1.19,1.19,0,0,1-.62.7,1.18,1.18,0,0,1-.53.12,1.12,1.12,0,0,1-1.09-.68L38.92,16.65H32.07V28.78A1.23,1.23,0,0,1,30.84,30a1.19,1.19,0,0,1-1.21-1.21V2A1.17,1.17,0,0,1,30,1.15a1.22,1.22,0,0,1,.86-.35Zm6.16,7.92a5,5,0,0,0-1.81-3.88,6.29,6.29,0,0,0-4.35-1.62H32.07v11h8.21a6.21,6.21,0,0,0,4.25-1.64A5,5,0,0,0,46.29,8.73Z"/><path d="M53.29,30.19A1.26,1.26,0,0,1,52.06,29V2a1.14,1.14,0,0,1,.37-.86,1.09,1.09,0,0,1,.86-.37l16.29,0a1.14,1.14,0,0,1,.86.37,1.18,1.18,0,0,1,.37.86,1.2,1.2,0,0,1-.37.88,1.17,1.17,0,0,1-.86.35l-15.06,0v11H65.79a1.22,1.22,0,0,1,.86,2.09,1.14,1.14,0,0,1-.86.37H54.53v11H69.59a1.23,1.23,0,0,1,0,2.46Z"/><path d="M75.6,30.19A1.26,1.26,0,0,1,74.37,29V2a1.14,1.14,0,0,1,.37-.86A1.09,1.09,0,0,1,75.6.72L91.9.76a1.14,1.14,0,0,1,.86.37,1.18,1.18,0,0,1,.37.86,1.2,1.2,0,0,1-.37.88,1.17,1.17,0,0,1-.86.35l-15.06,0v11H88.1A1.22,1.22,0,0,1,89,16.32a1.14,1.14,0,0,1-.86.37H76.83v11H91.9a1.23,1.23,0,0,1,0,2.46Z"/><path d="M120.16,29V29a.39.39,0,0,1,0,.12.34.34,0,0,1,0,.1.64.64,0,0,1,0,.12l0,.1a.26.26,0,0,1-.06.1l-.06.1-.08.1-.08.08-.06,0s0,0,0,0l-.06,0-.12.06-.08,0-.14,0-.08,0-.23,0-.25,0-.08,0-.16-.06-.08-.06-.14-.08-.08-.06-.06-.06-.06-.06,0,0,0,0L99.18,5.52V29a1.23,1.23,0,0,1-2.46,0v-27A1.13,1.13,0,0,1,97.54.76a1.13,1.13,0,0,1,1.37.41l18.8,24.19"/><path d="M108,3a1.36,1.36,0,0,1,.4-2.12,1.41,1.41,0,0,1,1.82.61L125.6,21.65,137.83,1.44a1.12,1.12,0,0,1,1.37-.55,1.11,1.11,0,0,1,.9,1.17V29a1.2,1.2,0,0,1-.37.88,1.17,1.17,0,0,1-.86.35,1.22,1.22,0,0,1-.86-.35,1.24,1.24,0,0,1-.35-.88V6.45l-11,18.2,0,0v0l-.08.1-.08.08-.08.08-.1.08,0,0-.06,0-.12.06-.1,0-.12,0-.1,0-.12,0-.12,0-.1,0-.12,0-.1,0-.12-.06h0a0,0,0,0,0,0,0l0,0-.1-.08-.08-.08-.08-.08-.08-.1v0l0,0"/><path d="M173.77,3.21h-8.11a1.24,1.24,0,0,1-.88-.35,1.17,1.17,0,0,1-.35-.86,1.17,1.17,0,0,1,.35-.86,1.2,1.2,0,0,1,.88-.37h18.65a1.14,1.14,0,0,1,.86.37,1.14,1.14,0,0,1,.37.86,1.14,1.14,0,0,1-.37.86,1.17,1.17,0,0,1-.86.35h-8.11V29A1.19,1.19,0,0,1,175,30.19a1.22,1.22,0,0,1-.86-.35,1.24,1.24,0,0,1-.35-.88Z"/><path d="M196.93,3.21h-8.11a1.24,1.24,0,0,1-.88-.35A1.17,1.17,0,0,1,187.6,2a1.17,1.17,0,0,1,.35-.86,1.2,1.2,0,0,1,.88-.37h18.65a1.14,1.14,0,0,1,.86.37,1.14,1.14,0,0,1,.37.86,1.14,1.14,0,0,1-.37.86,1.17,1.17,0,0,1-.86.35h-8.11V29a1.19,1.19,0,0,1-1.23,1.23,1.22,1.22,0,0,1-.86-.35,1.24,1.24,0,0,1-.35-.88Z"/><path d="M212.66,30.19A1.26,1.26,0,0,1,211.42,29V2a1.14,1.14,0,0,1,.37-.86,1.09,1.09,0,0,1,.86-.37l16.29,0a1.14,1.14,0,0,1,.86.37,1.18,1.18,0,0,1,.37.86,1.2,1.2,0,0,1-.37.88,1.17,1.17,0,0,1-.86.35l-15.06,0v11h11.27a1.22,1.22,0,0,1,.86,2.09,1.14,1.14,0,0,1-.86.37H213.89v11h15.06a1.23,1.23,0,0,1,0,2.46Z"/><path d="M245.06.81a8.66,8.66,0,0,1,6.07,2.32,7.36,7.36,0,0,1,2.5,5.6,7.32,7.32,0,0,1-2.05,5.13,8.4,8.4,0,0,1-5.07,2.67l5.85,11.92a1.15,1.15,0,0,1,.06.92,1.19,1.19,0,0,1-.62.7,1.18,1.18,0,0,1-.53.12,1.12,1.12,0,0,1-1.09-.68l-6.34-12.87H237V28.78A1.23,1.23,0,0,1,235.76,30a1.19,1.19,0,0,1-1.21-1.21V2a1.17,1.17,0,0,1,.35-.86,1.22,1.22,0,0,1,.86-.35Zm6.16,7.92a5,5,0,0,0-1.81-3.88,6.29,6.29,0,0,0-4.35-1.62H237v11h8.21a6.21,6.21,0,0,0,4.25-1.64A5,5,0,0,0,251.21,8.73Z"/><path d="M144.93,30a1.18,1.18,0,0,1-.7-.64,1.2,1.2,0,0,1,0-.92l11.19-27s0,0,0-.08a.16.16,0,0,0,0-.06.55.55,0,0,1,.1-.14l0,0,.14-.16,0,0,.12-.08.08,0,.14-.08h0l0,0s0,0,0,0l.12,0h.06l.21,0,.18,0h.06l.14,0h0l0,0h0l.16.08.06,0,.12.08,0,0,.14.16,0,0v0a.55.55,0,0,1,.1.14.16.16,0,0,0,0,.06q0,.1,0,.08l11.07,27.25a1.09,1.09,0,0,1,0,.92,1.21,1.21,0,0,1-1.64.57,1.12,1.12,0,0,1-.62-.7L156.56,5.51,146.49,29.24a1.12,1.12,0,0,1-.62.7l-.45.23Z"/><path d="M26.28,14.73a1.21,1.21,0,0,0,0-.17s0,0,0-.07a1.21,1.21,0,0,0,0-.15A1.27,1.27,0,0,0,25,13.46a1.26,1.26,0,0,0-.27,0H18.87a1.24,1.24,0,1,0,0,2.47h4.85l-.06,7.57a12,12,0,0,1-8,3.65,11.89,11.89,0,0,1-8.95-3,11.89,11.89,0,0,1-4.2-8.46,11.91,11.91,0,0,1,3-9A11.89,11.89,0,0,1,14,2.53a12.1,12.1,0,0,1,7.7,2,1.08,1.08,0,0,0,.92.19,1.17,1.17,0,0,0,.79-.53,1.18,1.18,0,0,0,.19-.92,1.17,1.17,0,0,0-.53-.79A14.43,14.43,0,0,0,13.84,0,14.25,14.25,0,0,0,3.68,5.1,14.27,14.27,0,0,0,0,15.87,14.24,14.24,0,0,0,5.1,26a14.24,14.24,0,0,0,10.75,3.64,14.35,14.35,0,0,0,9.72-4.54,1.18,1.18,0,0,0,.35-.79,1.26,1.26,0,0,0,.28-.77l.08-8.82h0Z"/></svg>