<?xml version="1.0" encoding="utf-8"?>
<!-- Generator: Adobe Illustrator 21.0.2, SVG Export Plug-In . SVG Version: 6.00 Build 0)  -->
<svg version="1.1" id="Layer_1" xmlns="http://www.w3.org/2000/svg" xmlns:xlink="http://www.w3.org/1999/xlink" x="0px" y="0px"
	 viewBox="0 0 147 84" style="enable-background:new 0 0 147 84;" xml:space="preserve">
<style type="text/css">
	.st0{fill:#003155;}
	.st1{fill:#F49712;}
</style>
<path class="st0" d="M90.6,49.5c-0.2-0.9-1.1-2.7-3.6-2.7s-3.4,1.8-3.6,2.7H90.6z M94.8,54.2c-0.8,1.7-1.9,3.1-3.2,4
	c-1.3,0.9-2.8,1.4-4.5,1.4c-4.5,0-8.3-3.6-8.3-8.3c0-4.4,3.4-8.4,8.2-8.4s8.3,3.8,8.3,8.5c0,0.6-0.1,0.9-0.1,1.2H83.5
	c0.3,1.9,1.8,3,3.7,3c1.4,0,2.2-0.6,2.8-1.5H94.8z M63.3,43.4h4.4v1.7h0.1c0.5-0.8,1.5-2.2,4.3-2.2c1.5,0,3.2,0.6,4,1.4
	c0.8,0.7,1.8,2,1.8,5.1v9.8h-4.7v-8.5c0-1.1,0-3.2-2.5-3.2c-2.7,0-2.7,2.3-2.7,3.3v8.5h-4.7V43.4z M61.3,59.1h-4.7V43.4h4.7V59.1z
	 M61.3,41.7h-4.7v-3.6h4.7V41.7z M47.2,43.4h4.4v1.7h0.1c0.4-0.8,1.2-2.2,3.9-2.2v4.7c-2.2,0.1-3.7,0.5-3.7,2.9v8.6h-4.7V43.4z
	 M36.6,55.2c2.9,0,3.9-2.5,3.9-4c0-1.9-1.3-4-4-4c-2.7,0-3.9,2.3-3.9,4C32.7,52.8,33.8,55.2,36.6,55.2 M45.2,59.1h-4.7v-1.7h-0.1
	c-0.8,1.5-2.7,2.2-4.6,2.2c-5,0-7.9-3.9-7.9-8.4c0-5.1,3.7-8.4,7.9-8.4c2.6,0,4,1.2,4.6,2.2h0.1v-1.7h4.7V59.1z M2.8,43.4h4.4v1.7
	h0.1c0.4-0.6,1.4-2.2,4.3-2.2c1.4,0,3.3,0.5,4.5,2.8c1-1.5,2.6-2.8,5-2.8c1.1,0,2.8,0.3,4.1,1.6c1.5,1.6,1.7,2.6,1.7,6.1v8.5h-4.7
	v-8.3c0-1.3,0-3.5-2.4-3.5c-2.6,0-2.6,2.4-2.6,3.2v8.5h-4.7v-8.5c0-0.8,0-3.3-2.3-3.3c-2.7,0-2.7,2.5-2.7,3.5v8.3H2.8V43.4z
	 M127.8,48.6c0.7,0,1.4,0.1,2.1,0.2c-0.2,0.8-0.4,1.6-0.5,2.5c-0.4,3,1.8,7.4-1.1,9.8c-1.8,0-1.6-5.3-4.6-6c-1.5-0.4,2.4-4,2.7-4.8
	c0.2-0.5,0.3-1,0.4-1.5C127,48.6,127.4,48.6,127.8,48.6 M87.4,32.3c-1.6-0.3-1.1-2.8,0.5-2.5C89.6,30.1,89.1,32.6,87.4,32.3
	 M121.1,12.7C117.7,10.3,114,9,110,8c-1.8-0.5-3.6-0.7-2.3-2.8c1.1-1.8,0.8-3.3-1.6-3.1c-3.8,0.3-5.3,4.5-8.2,6
	c-3.5,1.7-7,2.5-10,5.1c-3.3,2.8-5.6,5.5-7.6,9.4c-1.3,2.5-1.8,7.4-0.4,10c0.9,1.5,1.8,3.2,1.6,5c-0.1,1.3-2.1,4.6-0.1,5
	c1,0.2,3.3-2.5,4.1-3.1c1.2-1,2.4-2.2,3.5-3c2.5-1.9,3.3-2.4,5.9-3.3c1.6-0.6,3.6-0.3,5.2,0.2c2.1,0.6,4.4,1,6.2-0.6
	c2.3-2-0.9-2.1-1.9-2.8c-1.9-1.4-0.8-3.7,0.8-4.9c1.9-1.4,4.8-1.5,7.1-1.2c5,0.8,7.9,3.2,10.4,7.4c0.1,0.2,0.3,0.5,0.4,0.8
	c3.3,0.1,6.5,0.8,9.4,2.2C131.9,25.7,128.3,17.6,121.1,12.7"/>
<path class="st1" d="M128.1,64.3l-1.5,4.4l-1.5-4.4h-2.4l2.8,7.3l-1.2,2.9h2.4l3.8-10.2H128.1z M122.4,61.7h-2.3v2.6H119V66h1.1v5.9
	h2.3V66h1.1v-1.7h-1.1V61.7z M113.7,67.3c0.2-0.9,0.8-1.3,1.7-1.3c0.9,0,1.6,0.5,1.7,1.3H113.7z M116.8,69.5l-0.1,0.1
	c-0.5,0.5-0.8,0.6-1.4,0.6c-0.9,0-1.6-0.6-1.7-1.4h5.7c0-0.2,0-0.4,0-0.6c0-2.4-1.7-4.2-4-4.2c-2.2,0-4,1.8-4,4.1
	c0,2.3,1.8,4.1,4.1,4.1c1.6,0,3-1,3.7-2.6H116.8z M111,64.3h-2.3v7.6h2.3V64.3z M111,61.7h-2.3v1.7h2.3V61.7z M106.1,69
	c-0.5,0.7-1,1-1.7,1c-1,0-1.8-0.8-1.8-1.9c0-1.2,0.7-2,1.8-2c0.7,0,1.4,0.4,1.6,1.1h2.3c-0.4-1.9-2-3.2-4-3.2
	c-2.3,0-4.1,1.8-4.1,4.1c0,2.3,1.8,4.1,4.1,4.1c1.9,0,3.5-1.3,4-3.2H106.1z M96.2,66.2c1,0,1.8,0.9,1.8,1.9c0,1.1-0.8,2-1.8,2
	c-1.1,0-1.9-0.8-1.9-2C94.3,67,95.1,66.2,96.2,66.2 M96.2,64c-2.4,0-4.1,1.7-4.1,4.1c0,2.4,1.7,4.1,4.1,4.1c2.4,0,4.1-1.7,4.1-4.1
	S98.5,64,96.2,64 M91.8,66.4C91.6,64.9,90.6,64,89,64c-1.7,0-3.1,1.1-3.1,2.5c0,1,0.7,1.9,1.6,2.1l0.4,0.1l0.4,0.1l0.4,0.1
	c0.1,0,0.2,0,0.2,0.1c0.4,0.2,0.6,0.4,0.6,0.7c0,0.3-0.4,0.6-0.8,0.6c-0.5,0-0.8-0.2-0.9-0.7h-2.3c0.2,1.6,1.3,2.5,3,2.5
	c1.8,0,3.2-1.1,3.2-2.6c0-0.7-0.2-1.2-0.7-1.6c-0.4-0.4-0.8-0.5-2-0.9c-0.8-0.2-1.2-0.5-1.2-0.8c0-0.3,0.3-0.5,0.7-0.5
	c0.4,0,0.6,0.2,0.7,0.6H91.8z M75.5,71.9h2.3v-4.3c0-1,0.4-1.5,1.3-1.5c0.8,0,1.2,0.5,1.2,1.6v4.2h2.3v-4.8c0-1.2-0.2-1.8-0.8-2.4
	c-0.5-0.5-1.3-0.8-2.1-0.8c-1,0-1.6,0.3-2.1,1.1v-0.8h-2.2V71.9z M71,66.2c1,0,1.8,0.9,1.8,1.9c0,1.1-0.8,2-1.8,2
	c-1.1,0-1.9-0.8-1.9-2C69.1,67,69.9,66.2,71,66.2 M70.9,64c-2.4,0-4.1,1.7-4.1,4.1c0,2.4,1.7,4.1,4.1,4.1c2.4,0,4.1-1.7,4.1-4.1
	S73.3,64,70.9,64 M66.4,64.3h-2.3v7.6h2.3V64.3z M66.4,61.7h-2.3v1.7h2.3V61.7z M62.9,61.7h-2.3v2.6h-1.1V66h1.1v5.9h2.3V66H64v-1.7
	h-1.1V61.7z M55.4,66.2c1.1,0,1.9,0.8,1.9,1.9c0,1.1-0.8,1.9-1.9,1.9c-1.1,0-1.9-0.8-1.9-1.9C53.5,67,54.3,66.2,55.4,66.2
	 M59.6,64.3h-2.2v0.8C57,64.4,56.3,64,55.1,64c-2.3,0-3.9,1.7-3.9,4.1s1.6,4.1,3.9,4.1c1.2,0,2-0.4,2.4-1.1v0.8h2.2V64.3z
	 M51.9,64.3h-2.4L48,69.1l-1.5-4.8h-2.4l2.7,7.6h2.2L51.9,64.3z M40.5,71.9h2.3v-4.2c0-1,0.5-1.4,1.8-1.4V64c-0.9,0-1.5,0.3-1.9,1.1
	v-0.8h-2.2V71.9z M34.3,67.3c0.2-0.9,0.8-1.3,1.7-1.3c0.9,0,1.6,0.5,1.7,1.3H34.3z M37.4,69.5l-0.1,0.1c-0.5,0.5-0.8,0.6-1.4,0.6
	c-0.9,0-1.6-0.6-1.7-1.4H40c0-0.2,0-0.4,0-0.6c0-2.4-1.7-4.2-4-4.2c-2.2,0-4,1.8-4,4.1c0,2.3,1.8,4.1,4.1,4.1c1.6,0,3-1,3.7-2.6
	H37.4z M31.8,66.4C31.7,64.9,30.6,64,29,64c-1.7,0-3.1,1.1-3.1,2.5c0,1,0.7,1.9,1.6,2.1l0.4,0.1l0.4,0.1l0.4,0.1
	c0.1,0,0.2,0,0.2,0.1c0.4,0.2,0.6,0.4,0.6,0.7c0,0.3-0.4,0.6-0.8,0.6c-0.5,0-0.8-0.2-0.9-0.7h-2.3c0.2,1.6,1.3,2.5,3,2.5
	c1.8,0,3.2-1.1,3.2-2.6c0-0.7-0.2-1.2-0.7-1.6c-0.4-0.4-0.8-0.5-2-0.9c-0.8-0.2-1.2-0.5-1.2-0.8c0-0.3,0.3-0.5,0.7-0.5
	c0.4,0,0.6,0.2,0.7,0.6H31.8z M18.6,71.9h2.3v-4.3c0-1,0.4-1.5,1.3-1.5c0.8,0,1.2,0.5,1.2,1.6v4.2h2.3v-4.8c0-1.2-0.2-1.8-0.8-2.4
	c-0.5-0.5-1.3-0.8-2.1-0.8c-1,0-1.6,0.3-2.1,1.1v-0.8h-2.2V71.9z M14,66.2c1,0,1.8,0.9,1.8,1.9c0,1.1-0.8,2-1.8,2
	c-1.1,0-1.9-0.8-1.9-2C12.2,67,13,66.2,14,66.2 M14,64c-2.4,0-4.1,1.7-4.1,4.1c0,2.4,1.7,4.1,4.1,4.1c2.4,0,4.1-1.7,4.1-4.1
	S16.4,64,14,64 M7.7,69c-0.5,0.7-1,1-1.7,1c-1,0-1.8-0.8-1.8-1.9c0-1.2,0.7-2,1.8-2c0.7,0,1.4,0.4,1.6,1.1H10c-0.4-1.9-2-3.2-4-3.2
	c-2.3,0-4.1,1.8-4.1,4.1c0,2.3,1.8,4.1,4.1,4.1c1.9,0,3.5-1.3,4-3.2H7.7z M144.5,57.4c-0.2-1.8-0.2-3.6-0.2-5.4c0-1.5,0-3-0.1-4.5
	c-0.3-2.8-3-5.7-4.3-7.1c-2.2-2.4-4.8-4.2-7.5-5.6c-2.8-1.4-5.9-2.1-9.1-2.3c-0.6,0-1.2,0-1.8,0l-0.3,0c-2.2,0.1-6.2,0.2-7.9,1.7
	c-0.5,0.4-0.6,0.9-0.7,1.3c-0.1,0.5-0.3,1-1,1c-0.3,0-0.7-0.1-1.2-0.3c-0.4-0.2-0.8-0.4-1.2-0.6c-0.7-0.4-1.3-0.7-2-0.7
	c-0.3,0-0.6,0.1-0.9,0.2c-1,0.4-1.8,1.3-2.1,2.4c-0.4,1.1-0.3,2.3,0.2,3.2c0.8,1.5,1.7,2.4,3.6,2.9c0.3,0.1,1.1,0.3,1.7,0.3
	c0.1,0,0.2,0,0.3,0c0.4-0.1,0.8-0.4,1.1-0.7c0.3-0.3,0.6-0.6,1.1-0.7c0.4-0.1,0.8-0.2,1.1-0.2c0.7,0,1.1,0.4,1.2,0.7
	c0.8,1.8-2.2,6.4-2.8,7.1c-2.1,2.5-4.7,4.2-8.2,5.4c-1.6,0.6-2.7,1.2-4.2,2.5c-0.7,0.6-1.1,1.3-1,1.6c0.1,0.3,0.5,0.4,1,0.4
	c0.4,0,0.9-0.1,1.4-0.3c0.6-0.3,1.1-0.7,1.6-1.2c0.7-0.6,1.3-1.2,2.3-1.5c0.9-0.2,1.8-0.4,2.7-0.5c0.7-0.1,1.5-0.2,2.2-0.4
	c3-0.7,5.7-2.1,8.6-4.4c2.4-1.9,5.5-3.1,8.4-3.3c0.3,0,0.7,0,1,0c0.8,0,1.5,0.1,2.2,0.2c4,0.8,6.6,3.7,7,8.2c0.1,0.6,0,1.1-0.1,1.6
	c-0.1,0.4-0.2,0.8-0.1,1.2c0,0.5,0.2,1,0.4,1.6c0.1,0.4,0.3,0.8,0.3,1.2c0.4,1.9,0.5,3.8,0.3,5.5c-0.4,3.3-1.7,5.8-3,8.5
	c-0.2,0.4-0.4,0.8-0.6,1.3c-0.4,0.8-0.9,3.1-0.6,3.3c0.1,0,0.2,0,0.6-0.3l0.4,0.4c-0.3,0.4-0.3,1-0.1,1.3c0.1,0.2,0.4,0.3,0.8,0.2
	c1-0.3,1.5-1.1,2-1.9c0.3-0.4,0.6-0.9,0.9-1.3c0.4-0.4,1-0.8,1.6-1.1c0.8-0.5,1.7-1,1.8-1.6c0.1-0.5-0.1-1.1-0.2-1.7
	c-0.2-0.8-0.5-1.6-0.1-2.6c0.3-1,0.9-1.9,1.4-2.8c0.3-0.5,0.6-1,0.9-1.6C145,64,145.1,61.2,144.5,57.4 M104.5,43.5L104.5,43.5
	c-2.5,2.6-4.1,6.1-4.7,9.6l0,0.1c-0.4,1.3-1.4,4.7-3,4.9c-0.1,0-0.2,0-0.2,0c-0.3,0-0.4-0.1-0.5-0.2c-0.4-0.6,0.3-2.1,0.6-2.9
	l0.1-0.2c0.2-0.4,0.4-0.7,0.7-1c0.5-0.5,0.9-1,0.9-2.1c0.1-0.4,0.1-0.9,0.1-1.3l0,0c0-0.4,0-0.9,0.1-1.3c0.5-3,1.7-5.5,4-7.9
	l0.1-0.1l0,0.1c0.1,0.2,0.2,0.3,0.3,0.5C103.4,42.3,103.8,43,104.5,43.5L104.5,43.5z"/>
</svg>
